<svg width="21" height="28" viewBox="0 0 21 28" fill="none" xmlns="http://www.w3.org/2000/svg">
<path d="M9.67592 0.0777528C9.42474 0.11604 9.0594 0.181675 8.86531 0.230901C6.40494 0.843495 4.61247 2.74691 4.10442 5.2848C4.04733 5.56922 4.01879 5.62392 3.89891 5.65673C3.52215 5.74425 3.04263 6.17087 2.83142 6.60844C2.74008 6.80535 2.71154 6.96396 2.71154 7.3523C2.71154 7.93208 2.84284 8.24385 3.23101 8.62125C3.53927 8.91114 3.83041 9.05335 4.2928 9.13539C4.64101 9.19556 4.67527 9.21743 4.7666 9.39793C5.14336 10.1691 6.07956 11.181 6.89017 11.7006C7.14705 11.8647 7.35826 12.0179 7.36397 12.0343C7.36397 12.0562 7.30689 12.0835 7.23838 12.1054C6.97008 12.1655 6.21085 12.6414 5.84551 12.975C5.63429 13.161 5.34316 13.4782 5.19474 13.6806L4.92644 14.0416L4.52114 13.7791C4.08158 13.4947 3.65915 13.3689 3.31664 13.429C2.99697 13.4837 2.59166 13.7025 2.43753 13.8994C2.16923 14.244 2.14069 14.3424 2.11215 15.0043L2.0836 15.6606L1.79818 15.7208C0.930486 15.9122 0.222632 16.6178 0.057085 17.4492C0.022834 17.6187 0 19.1557 0 21.2396C0 25.1613 0 25.1558 0.388178 25.6973C0.645061 26.0583 1.15312 26.4083 1.66117 26.5724C1.86097 26.6381 3.65915 26.9827 5.65142 27.3436L9.28203 28H10.6521H12.0278L15.4758 27.4257C17.371 27.1085 19.0835 26.8022 19.2833 26.7365C19.7229 26.5943 20.2595 26.2607 20.4935 25.9763C20.5906 25.8614 20.739 25.6207 20.8246 25.4457L20.9788 25.1285L20.9959 21.4638C21.0073 18.8658 20.9959 17.7062 20.9502 17.471C20.8132 16.7928 20.3394 16.1966 19.7172 15.9122C19.5231 15.8192 19.3233 15.7481 19.2776 15.7481C19.2091 15.7481 19.192 15.6278 19.1692 15.1027C19.152 14.5776 19.1235 14.4135 19.015 14.2057C18.7696 13.7134 18.3015 13.4345 17.7249 13.4345C17.3539 13.4345 17.0856 13.5329 16.6003 13.8666L16.3263 14.0526L16.1037 13.7353C15.6299 13.0844 15.0533 12.5976 14.374 12.2695C14.1571 12.1655 13.9858 12.0671 13.9915 12.0562C14.003 12.0507 14.2085 11.9139 14.4482 11.7608C15.2931 11.2248 16.0809 10.4043 16.5832 9.54561L16.7887 9.19556L17.1312 9.13539C17.7535 9.03147 18.2729 8.67048 18.5583 8.13446C18.6554 7.95943 18.6954 7.77346 18.7125 7.42888C18.7353 7.00225 18.7239 6.92568 18.5812 6.61938C18.3985 6.23651 17.9932 5.8427 17.6164 5.67861C17.3881 5.58563 17.3596 5.55281 17.3253 5.3395C17.0113 3.4142 15.4986 1.45609 13.6719 0.619242C12.4845 0.0722832 11.0174 -0.124622 9.67592 0.0777528ZM12.0164 1.24824C13.3922 1.57095 14.5909 2.39686 15.2874 3.49625C15.4529 3.74785 15.5842 3.97757 15.5842 3.99945C15.5842 4.20729 13.8888 3.63299 13.1239 3.1626C12.9811 3.07509 12.7871 3.00398 12.69 3.00398C12.5987 3.00398 12.2733 3.12431 11.9764 3.27199C10.555 3.96116 8.67122 4.27293 6.67324 4.14713C6.18802 4.11431 5.78272 4.08149 5.7713 4.06508C5.69138 3.98851 6.19373 3.26105 6.65041 2.79614C7.50098 1.921 8.7283 1.30841 9.9328 1.14432C10.4751 1.07322 11.4912 1.12244 12.0164 1.24824ZM13.0725 4.39326C13.8717 4.79801 14.8022 5.08243 15.6584 5.18635C15.9039 5.2137 16.1208 5.24651 16.1322 5.26292C16.1437 5.27386 16.1893 5.50358 16.235 5.77159C16.2749 6.0396 16.332 6.30214 16.3549 6.35684C16.4062 6.4717 16.6688 6.61391 16.8401 6.61391C17.2283 6.61391 17.5822 6.95849 17.5822 7.34137C17.5822 7.82816 17.2739 8.05788 16.646 8.04147C16.1322 8.03053 16.0295 8.10164 15.784 8.61578C14.4825 11.356 11.0574 12.5375 8.26592 11.2084C7.66652 10.9239 7.35255 10.7106 6.85591 10.2567C6.34786 9.78627 6.03389 9.37058 5.69138 8.7197C5.34316 8.05241 5.19474 7.94302 4.7666 8.036C3.90462 8.22197 3.44794 7.06789 4.24142 6.70689C4.34988 6.65767 4.52114 6.61391 4.62389 6.61391C4.74377 6.61391 4.85794 6.56468 4.96069 6.46076C5.09769 6.33496 5.12624 6.23651 5.18903 5.80988C5.28037 5.09883 5.26895 5.11524 5.61717 5.159C8.06612 5.44889 10.4694 5.16447 12.2162 4.38232C12.4217 4.28934 12.6158 4.21276 12.6443 4.21276C12.6786 4.20729 12.8727 4.28934 13.0725 4.39326ZM13.1866 12.9805C13.689 13.1391 14.2656 13.4509 14.6138 13.7627C14.9277 14.0361 15.4015 14.6269 15.3502 14.6761C15.3388 14.687 14.5339 15.2176 13.5634 15.852L11.7995 17.0061H10.6464H9.49895L8.74543 16.5193C8.33442 16.2513 7.52952 15.7317 6.96438 15.3598C6.39923 14.9933 5.93685 14.6651 5.93685 14.6269C5.93685 14.4956 6.43919 13.9049 6.77029 13.6478C7.27264 13.2485 7.92911 12.9696 8.53421 12.8875C8.63126 12.8711 9.64166 12.8656 10.7891 12.8711C12.6101 12.8821 12.9126 12.8985 13.1866 12.9805ZM5.11482 15.4856C5.9083 15.9997 6.55907 16.4318 6.54766 16.4373C6.54195 16.4428 5.80555 16.306 4.90931 16.1255C4.01308 15.9505 3.27668 15.8028 3.27097 15.8028C3.25956 15.8028 3.25385 15.5457 3.25385 15.234C3.25385 14.7034 3.26526 14.6542 3.37943 14.5722C3.45365 14.5284 3.54498 14.5011 3.58494 14.5175C3.6249 14.5339 4.31563 14.966 5.11482 15.4856ZM17.9247 14.5995C18.0275 14.698 18.0389 14.7691 18.0275 15.2395L18.0103 15.77L16.469 16.0872C15.6242 16.2623 14.8935 16.399 14.8535 16.3881C14.7907 16.3771 17.4224 14.6214 17.6336 14.5339C17.7763 14.4792 17.8048 14.4846 17.9247 14.5995ZM5.48587 17.3617C7.24409 17.7062 8.69405 17.9907 8.70547 17.9907C8.71689 17.9907 8.73401 18.461 8.74543 19.0353L8.76256 20.08L8.95094 20.2387C9.19069 20.4465 9.45899 20.452 9.69875 20.2551L9.87571 20.1183L9.88713 19.1229L9.90426 18.1274H10.6464H11.3885V22.5031V26.8787H10.6464H9.90426L9.87571 25.6973C9.84717 24.4065 9.84146 24.3846 9.49895 24.2807C9.33911 24.226 9.27061 24.2315 9.08794 24.319C8.77968 24.4612 8.73972 24.6253 8.73972 25.8012C8.73401 26.7311 8.7283 26.8022 8.63697 26.7748C8.53421 26.7475 5.8398 26.2552 3.73907 25.8887C2.45466 25.659 2.04935 25.566 1.77535 25.4293C1.49563 25.2926 1.26729 25.0519 1.19879 24.8222C1.11887 24.5542 1.12458 17.8102 1.20449 17.5257C1.29012 17.2249 1.68972 16.8639 2.00939 16.7983C2.1464 16.7655 2.26057 16.7436 2.26628 16.7381C2.27769 16.7326 3.72195 17.0171 5.48587 17.3617ZM19.3575 16.9788C19.4888 17.0718 19.6544 17.2413 19.7172 17.3617C19.8371 17.575 19.8371 17.6515 19.8542 21.081C19.8656 23.0063 19.8542 24.6909 19.8371 24.8222C19.7914 25.123 19.4546 25.484 19.0664 25.6426C18.8894 25.7137 17.7306 25.9325 15.8297 26.2497C14.2028 26.5232 12.8042 26.7584 12.7185 26.7748L12.5587 26.8076V22.4046V17.9961L12.8613 17.936C13.0211 17.9031 14.3398 17.6351 15.784 17.3343C18.7581 16.7217 18.9465 16.6998 19.3575 16.9788Z" fill="black"/>
<path d="M7.22126 6.55378C6.53053 6.74522 6.27936 6.9476 6.27936 7.29765C6.27936 7.47268 6.31361 7.55472 6.4392 7.66958C6.6447 7.86102 6.87304 7.86102 7.35256 7.67505C7.82065 7.49455 8.3858 7.50549 8.79681 7.69693C9.26491 7.91571 9.63596 7.8282 9.76155 7.46721C9.89855 7.05699 9.54462 6.72334 8.76256 6.52644C8.36867 6.42251 7.63798 6.43892 7.22126 6.55378Z" fill="black"/>
<path d="M12.5188 6.53191C11.731 6.73975 11.3942 7.05699 11.5312 7.46721C11.6568 7.8282 12.0335 7.91571 12.5073 7.69693C12.6729 7.62035 12.9069 7.57113 13.1924 7.55472C13.5748 7.53284 13.6719 7.54925 13.9573 7.67505C14.3854 7.86102 14.648 7.86102 14.8535 7.66958C15.0533 7.48361 15.0762 7.13903 14.8992 6.95306C14.4882 6.53191 13.3237 6.32406 12.5188 6.53191Z" fill="black"/>
<path d="M9.29917 9.4307C8.99662 9.58931 8.94524 10.0324 9.20783 10.2675C9.51609 10.5465 10.3495 10.7489 10.9204 10.6887C11.3885 10.634 11.9765 10.4426 12.1591 10.2785C12.3989 10.0652 12.3989 9.73699 12.1648 9.50727C11.9593 9.31583 11.7881 9.3049 11.3599 9.46351C10.9261 9.62213 10.3895 9.6276 10.0241 9.46898C9.70447 9.33224 9.51038 9.3213 9.29917 9.4307Z" fill="black"/>
<path d="M9.15074 21.8303C8.76257 21.9287 8.6484 22.4319 8.93953 22.7163C9.28775 23.0445 9.87572 22.8093 9.87572 22.3444C9.87002 21.9506 9.55034 21.7263 9.15074 21.8303Z" fill="black"/>
<path d="M16.1265 19.6807C15.1846 19.8831 14.3398 20.069 14.2541 20.0909C13.8089 20.1948 13.6604 20.698 13.9801 21.0043C14.0715 21.0919 14.2085 21.163 14.2827 21.163C14.3569 21.163 15.2645 20.9879 16.2978 20.7692C17.9932 20.4136 18.1987 20.3589 18.3414 20.2277C18.5184 20.0581 18.5412 19.8229 18.4099 19.5823C18.3357 19.44 18.0674 19.2978 17.9019 19.3088C17.8676 19.3088 17.0684 19.4783 16.1265 19.6807Z" fill="black"/>
<path d="M16.0409 22.1695C15.0191 22.3883 14.1285 22.5961 14.06 22.6289C13.8888 22.7164 13.8146 22.8641 13.8146 23.1048C13.8146 23.3673 14.0657 23.6244 14.3226 23.6244C14.4996 23.6244 17.742 22.9571 18.0788 22.8532C18.4956 22.7274 18.6268 22.2789 18.3414 21.989C18.2501 21.9015 18.1188 21.8194 18.0389 21.803C17.959 21.7866 17.0627 21.9562 16.0409 22.1695Z" fill="black"/>
</svg>
