<svg width="25" height="25" viewBox="0 0 25 25" fill="none" xmlns="http://www.w3.org/2000/svg">
<path d="M11.3652 0.0487448C9.43892 0.224565 7.54199 0.864356 5.84062 1.90951C5.20995 2.30022 4.91172 2.56884 4.91172 2.75442C4.91172 3.03769 5.12683 3.26723 5.39573 3.27212C5.51795 3.27212 5.69396 3.18421 6.10463 2.91071C7.16065 2.21231 8.23623 1.71904 9.42914 1.39182C9.77626 1.29902 10.0892 1.22088 10.1234 1.22088C10.1918 1.22088 10.2309 1.50415 10.2847 2.44185L10.3189 3.10118L11.6585 5.15242C12.3919 6.2806 13.0372 7.30133 13.0861 7.41855C13.311 7.9167 13.1008 8.56138 12.6168 8.86418L12.3772 9.0107L11.3896 9.03512C10.3189 9.05954 10.1918 9.09372 10.094 9.35745C10.0647 9.42583 10.0452 10.0168 10.0452 10.6712C10.0452 11.3257 10.0305 11.8922 10.0158 11.9313C10.0012 11.9752 9.60025 12.1608 9.12113 12.3562C8.18245 12.7273 7.96244 12.8787 7.79133 13.2597C7.58599 13.709 7.73266 14.3732 8.114 14.6858C8.21178 14.7688 8.6469 14.9837 9.08202 15.1644C9.51714 15.3451 9.91315 15.5258 9.96204 15.5698C10.0354 15.6333 10.0452 15.7358 10.0452 16.2828C10.0452 17.0252 9.96693 17.4159 9.73715 17.8457C9.55136 18.1924 9.1358 18.632 8.81802 18.8176C8.31445 19.1106 8.09934 19.1546 6.94065 19.1936C5.77707 19.2278 5.63529 19.2571 5.23439 19.5306C4.93127 19.7406 4.72105 19.9995 4.54504 20.3804L4.3886 20.7174L4.01214 20.3072C2.45256 18.6369 1.43565 16.5026 1.06409 14.1144C0.94675 13.3476 0.94675 11.6773 1.06409 10.891C1.29876 9.35257 1.80232 7.9167 2.55523 6.64689C2.72145 6.36851 2.87301 6.09013 2.88768 6.02664C2.98546 5.65058 2.46234 5.31359 2.13966 5.54313C1.93432 5.68965 1.1912 7.0376 0.863637 7.86298C0.51163 8.75185 0.252514 9.72863 0.0862882 10.7933C-0.0163805 11.4819 -0.0310475 13.3622 0.0618432 14.0411C0.472518 16.9324 1.6801 19.389 3.66991 21.367C8.18245 25.8553 15.3741 26.2313 20.3365 22.2363C20.9329 21.7577 21.7983 20.8883 22.2774 20.2925C25.9246 15.7358 25.905 9.21582 22.2334 4.66403C21.72 4.02912 20.664 3.0035 20.0431 2.53465C17.54 0.659232 14.4501 -0.224753 11.3652 0.0487448ZM14.1519 1.09878C18.8209 1.78253 22.6343 5.26963 23.7099 9.84096C23.9348 10.7933 23.9983 11.3843 23.9983 12.5027C23.9983 13.6944 23.925 14.3195 23.661 15.3646C22.6294 19.4183 19.4124 22.6319 15.3546 23.6624C14.3279 23.9212 13.6826 23.9994 12.5141 23.9994C11.419 24.0043 10.9203 23.9554 9.99626 23.7503C8.49045 23.4182 7.09709 22.7979 5.79662 21.8846L5.34195 21.5623L5.3615 21.1814C5.38106 20.859 5.4055 20.7711 5.52773 20.6002C5.60595 20.4879 5.76729 20.3462 5.88463 20.2827C6.08507 20.1802 6.15841 20.1704 6.91131 20.1704C7.35621 20.1704 7.86466 20.146 8.03578 20.1167C8.80824 19.9946 9.43892 19.6674 9.99626 19.1008C10.4216 18.6662 10.6807 18.251 10.8616 17.704C10.9741 17.3573 10.9936 17.2156 11.0132 16.4489C11.0474 15.0179 10.9643 14.8909 9.5807 14.3097C8.73002 13.9532 8.70068 13.9337 8.68601 13.792C8.67624 13.709 8.70068 13.6162 8.7349 13.5918C8.76913 13.5625 9.16025 13.3916 9.59537 13.2206C10.4901 12.8592 10.6661 12.7469 10.8616 12.4148C10.9985 12.1852 10.9985 12.1755 11.0229 11.1108L11.0474 10.0363L11.8101 10.0119C12.5679 9.98748 12.5679 9.98748 12.9394 9.80189C13.3354 9.60653 13.7314 9.23536 13.9075 8.89348C14.191 8.32695 14.235 7.54064 13.9955 7.03272C13.927 6.8862 13.2963 5.87523 12.5874 4.78613L11.2967 2.80815L11.2332 1.97788C11.199 1.5188 11.1794 1.1232 11.1941 1.08901C11.2038 1.05483 11.3407 1.02064 11.4972 1.01087C12.0692 0.966918 13.5994 1.02064 14.1519 1.09878Z" fill="black"/>
<path d="M18.6938 10.4465C18.4689 10.6712 18.4982 10.8666 18.8209 11.3745C19.1533 11.8971 19.4027 12.4685 19.5689 13.079C19.6814 13.499 19.696 13.6455 19.696 14.383C19.7009 15.013 19.6814 15.2963 19.6178 15.5649C19.4369 16.2877 19.1631 16.9275 18.7671 17.5477C18.5031 17.958 18.4835 18.1582 18.6938 18.3682C18.9578 18.6271 19.2805 18.544 19.5445 18.1485C19.9991 17.4647 20.3218 16.7272 20.532 15.9116C20.708 15.2425 20.752 14.129 20.6347 13.4208C20.5418 12.8397 20.3169 12.1266 20.0627 11.5991C19.8329 11.1108 19.432 10.4905 19.2805 10.3831C19.0996 10.2561 18.86 10.2805 18.6938 10.4465Z" fill="black"/>
<path d="M16.2737 11.35C16.0635 11.56 16.0586 11.7261 16.2639 12.0435C16.7577 12.8201 16.9924 13.5673 16.9973 14.3829C17.0022 15.2083 16.8164 15.8481 16.3422 16.6344C16.215 16.8493 16.1075 17.0739 16.1075 17.1326C16.1075 17.3035 16.215 17.4891 16.3568 17.5623C16.7675 17.7723 17.0413 17.5233 17.5253 16.4976C18.2684 14.9104 18.112 13.0692 17.1048 11.5503C16.8311 11.14 16.5524 11.0716 16.2737 11.35Z" fill="black"/>
<path d="M13.9221 12.3757C13.7266 12.5466 13.7363 12.8348 13.9466 13.162C14.1715 13.5087 14.3035 13.9678 14.3035 14.4123C14.3084 14.8909 14.2448 15.1204 13.971 15.6186C13.795 15.9507 13.7559 16.0581 13.7803 16.1851C13.8537 16.5709 14.3035 16.7126 14.587 16.4391C14.7728 16.2584 15.1004 15.6039 15.2079 15.1888C15.3106 14.7786 15.3106 14.0899 15.2079 13.6504C15.1053 13.2206 14.8364 12.6589 14.6212 12.4343C14.4844 12.2878 14.4257 12.2585 14.2595 12.2585C14.1177 12.2585 14.0199 12.2927 13.9221 12.3757Z" fill="black"/>
<path d="M3.44016 3.90212C3.07349 4.2733 3.45972 4.88379 3.93884 4.68843C4.1344 4.60541 4.23707 4.44424 4.23707 4.21469C4.23707 4.07306 4.20285 4.00469 4.08551 3.89724C3.87528 3.70677 3.63572 3.71165 3.44016 3.90212Z" fill="black"/>
</svg>
